<?xml version="1.0" standalone="no"?>
<!DOCTYPE svg PUBLIC "-//W3C//DTD SVG 20010904//EN"
 "http://www.w3.org/TR/2001/REC-SVG-20010904/DTD/svg10.dtd">
<svg version="1.0" xmlns="http://www.w3.org/2000/svg"
 width="512.000000pt" height="512.000000pt" viewBox="0 0 512.000000 512.000000"
 preserveAspectRatio="xMidYMid meet">
<metadata>
Created by potrace 1.11, written by Peter Selinger 2001-2013
</metadata>
<g transform="translate(0.000000,512.000000) scale(0.100000,-0.100000)"
fill="#000000" stroke="none">
<path d="M2930 4576 c-132 -26 -235 -66 -320 -126 -91 -65 -197 -193 -249
-302 -13 -27 -24 -48 -26 -48 -1 0 -2 97 -1 215 1 137 -3 215 -9 216 -35 3
-1293 4 -1308 1 -15 -4 -17 -13 -15 -51 l3 -46 135 -2 c74 -1 141 -2 148 -2 9
-1 12 -389 12 -1905 l0 -1904 -137 0 c-76 0 -146 -1 -155 -1 -15 -1 -18 -10
-18 -51 l0 -50 1040 0 1040 0 0 53 0 52 -362 -2 -363 -2 0 725 0 726 20 -28
c130 -182 280 -240 620 -238 215 1 359 26 515 92 206 86 361 233 464 439 37
73 101 254 109 308 3 17 12 71 20 120 22 126 31 245 31 420 0 139 -10 330 -19
365 -2 8 -7 38 -10 65 -10 93 -53 259 -95 365 -119 304 -330 503 -605 574
-104 26 -117 28 -260 31 -83 2 -167 -2 -205 -9z m-89 -237 c102 -27 162 -174
184 -450 12 -155 15 -264 15 -674 0 -598 -7 -721 -54 -960 -16 -81 -67 -183
-113 -227 -89 -85 -252 -80 -357 12 -35 31 -96 113 -96 129 0 4 -7 21 -14 37
-17 32 -41 123 -52 187 -10 58 -11 1259 -2 1327 4 30 10 73 13 95 21 169 105
347 207 441 86 79 178 108 269 83z"/>
</g>
</svg>
